# xmcd
#
# Track frame offsets: 
#        150
#        17080
#        28737
#        41962
#        52115
#        64455
#        76060
#        89467
#        107072
#        119235
#
# Disc length: 1760 seconds
#
# Revision: 3
# Processed by: cddbd v1.5.2PL0 Copyright (c) Steve Scherf et al.
# Submitted via: ExactAudioCopyFreeDBPlugin 1.0
#
DISCID=8f06de0a
DTITLE=Conway Twitty - Loretta Lynn - Making Believe
DYEAR=1900
DGENRE=Country
TTITLE0=Making Believe
TTITLE1=I Can't Help It ( If I'm Still In Love With You )
TTITLE2=Faded Love
TTITLE3=Half As Much
TTITLE4=Please Help Me I'm Falling In Love
TTITLE5=Hey, Good Lookin'
TTITLE6=Release Me
TTITLE7=Back Home Again
TTITLE8=As Soon As I Hang Up The Phone ( The Telephone Song )
TTITLE9=It's True Love
EXTD=
EXTT0=
EXTT1=
EXTT2=
EXTT3=
EXTT4=
EXTT5=
EXTT6=
EXTT7=
EXTT8=
EXTT9=
PLAYORDER=
